<svg xmlns="http://www.w3.org/2000/svg" xmlns:xlink="http://www.w3.org/1999/xlink" width="25.077" height="26.42" viewBox="0 0 25.077 26.42">
  <defs>
    <style>
      .cls-1 {
        fill: none;
      }

      .cls-2 {
        clip-path: url(#clip-path);
      }

      .cls-3 {
        fill: #338ec9;
      }

      .cls-4 {
        fill: #fff;
      }

      .cls-5, .cls-6 {
        fill: #f14950;
      }

      .cls-6 {
        stroke: #fff;
        stroke-miterlimit: 10;
        stroke-width: 0.75px;
      }
    </style>
    <clipPath id="clip-path">
      <circle class="cls-1" cx="12.58" cy="13.21" r="9.163"/>
    </clipPath>
  </defs>
  <title>Recurso 5</title>
  <g id="Capa_2" data-name="Capa 2">
    <g id="Capa_1-2" data-name="Capa 1">
      <g class="cls-2">
        <circle class="cls-3" cx="12.58" cy="13.21" r="9.163"/>
        <g>
          <polygon class="cls-4" points="22.789 5.041 20.749 3 12.58 11.169 4.411 3 2.37 5.041 10.539 13.21 2.37 21.379 4.411 23.419 12.58 15.251 20.749 23.419 22.789 21.379 14.62 13.21 22.789 5.041"/>
          <polygon class="cls-5" points="11.867 13.913 2.212 4.259 2.916 3.555 11.867 12.506 24.373 0 25.077 0.704 11.867 13.913"/>
          <polygon class="cls-5" points="0.704 26.42 0 25.716 13.21 12.506 22.865 22.161 22.161 22.865 13.21 13.913 0.704 26.42"/>
        </g>
        <polygon class="cls-6" points="24.045 11.386 14.404 11.386 14.404 1.744 10.755 1.744 10.755 11.386 1.114 11.386 1.114 15.034 10.755 15.034 10.755 24.676 14.404 24.676 14.404 15.034 24.045 15.034 24.045 11.386"/>
      </g>
    </g>
  </g>
</svg>
