<svg xmlns="http://www.w3.org/2000/svg" width="88.5" height="20.88" viewBox="0 0 88.5 20.88">
  <defs>
    <style>
      .cls-1 {
        fill: #2276af;
      }

      .cls-2 {
        fill: #9dbf15;
      }
    </style>
  </defs>
  <title>Recurso 16</title>
  <g id="Capa_2" data-name="Capa 2">
    <g id="Capa_1-2" data-name="Capa 1">
      <g>
        <path class="cls-1" d="M85,6.66a3.14,3.14,0,0,1-3.4-3.11A3.14,3.14,0,0,1,84.74,0a3.3,3.3,0,0,1,3.08,1.25A3.51,3.51,0,0,1,88.11,5,3.26,3.26,0,0,1,85,6.66Z"/>
        <g>
          <path class="cls-2" d="M8.25,8.36h0a4.27,4.27,0,0,0-2-.4A5.36,5.36,0,0,0,4,8.43,5,5,0,0,0,3,9a1.43,1.43,0,0,0-1.47-.92,1.58,1.58,0,0,0-1.15.42A1.56,1.56,0,0,0,0,9.66v9.56a1.59,1.59,0,0,0,.43,1.17,1.57,1.57,0,0,0,1.14.4,1.52,1.52,0,0,0,1.16-.43,1.58,1.58,0,0,0,.41-1.14V13a1.75,1.75,0,0,1,.74-1.5,3.59,3.59,0,0,1,2.18-.61,8.27,8.27,0,0,1,1.3.14,1.87,1.87,0,0,0,.42.05,1.33,1.33,0,0,0,1.33-1,1.12,1.12,0,0,0,0-.35A1.45,1.45,0,0,0,8.25,8.36Z"/>
          <path class="cls-2" d="M19.06,8.83A6.55,6.55,0,0,0,15.78,8a6.6,6.6,0,0,0-3.3.83,5.82,5.82,0,0,0-2.29,2.3,6.72,6.72,0,0,0-.81,3.32,6.7,6.7,0,0,0,.81,3.3,5.82,5.82,0,0,0,2.29,2.3,6.6,6.6,0,0,0,3.3.83,6.57,6.57,0,0,0,3.3-.83,5.84,5.84,0,0,0,2.27-2.3,6.7,6.7,0,0,0,.82-3.3,6.66,6.66,0,0,0-.83-3.33A6,6,0,0,0,19.06,8.83Zm-1.57,8.68a3.28,3.28,0,0,1-1.71.45,3.22,3.22,0,0,1-1.7-.45,3.11,3.11,0,0,1-1.18-1.23,3.89,3.89,0,0,1-.43-1.83,4,4,0,0,1,.43-1.84,3.07,3.07,0,0,1,1.18-1.24,3.22,3.22,0,0,1,1.7-.44,3.28,3.28,0,0,1,1.71.44,3,3,0,0,1,1.16,1.24,3.93,3.93,0,0,1,.42,1.84,3.86,3.86,0,0,1-.42,1.83,3.06,3.06,0,0,1-1.16,1.23Z"/>
          <path class="cls-2" d="M36.6,3.52a1.58,1.58,0,0,0-1.15-.44,1.56,1.56,0,0,0-1.12.44,1.53,1.53,0,0,0-.47,1.15V9.26a6.61,6.61,0,0,0-1.1-.7A5.85,5.85,0,0,0,30.23,8a5.72,5.72,0,0,0-3.05.85A5.87,5.87,0,0,0,25,11.17a6.83,6.83,0,0,0-.78,3.26,6.47,6.47,0,0,0,.84,3.27A6.08,6.08,0,0,0,27.4,20a6.5,6.5,0,0,0,3.26.85A6.4,6.4,0,0,0,33.9,20a6.32,6.32,0,0,0,2.3-2.32A6.51,6.51,0,0,0,37,14.43V4.67a1.6,1.6,0,0,0-.44-1.15Zm-4.26,14a3.26,3.26,0,0,1-4.55-1.25,3.8,3.8,0,0,1-.44-1.82,3.69,3.69,0,0,1,.44-1.8,3.3,3.3,0,0,1,4.55-1.25,3.2,3.2,0,0,1,1.18,1.24A3.84,3.84,0,0,1,34,14.43a3.91,3.91,0,0,1-.43,1.82,3.16,3.16,0,0,1-1.18,1.25Z"/>
          <path class="cls-2" d="M49.41,8.83a6.94,6.94,0,0,0-6.58,0,5.82,5.82,0,0,0-2.29,2.3,6.72,6.72,0,0,0-.81,3.32,6.7,6.7,0,0,0,.81,3.3,5.82,5.82,0,0,0,2.29,2.3,7,7,0,0,0,6.6,0,5.93,5.93,0,0,0,2.28-2.3,6.7,6.7,0,0,0,.81-3.3,6.76,6.76,0,0,0-.82-3.33A6,6,0,0,0,49.41,8.83Zm-1.57,8.68a3.26,3.26,0,0,1-1.71.45,3.22,3.22,0,0,1-1.7-.45,3.17,3.17,0,0,1-1.18-1.23,3.89,3.89,0,0,1-.43-1.83,3.85,3.85,0,0,1,.44-1.84,3,3,0,0,1,1.17-1.24,3.22,3.22,0,0,1,1.7-.44,3.25,3.25,0,0,1,1.71.44A3,3,0,0,1,49,12.61a3.93,3.93,0,0,1,.42,1.84A3.86,3.86,0,0,1,49,16.28a3.06,3.06,0,0,1-1.16,1.23Z"/>
          <path class="cls-2" d="M59,17.66h-.54s-.18,0-.34-.27a2.14,2.14,0,0,1-.23-1.06V4.65a1.57,1.57,0,0,0-.44-1.13,1.66,1.66,0,0,0-2.25,0,1.57,1.57,0,0,0-.44,1.13V16.33a5.45,5.45,0,0,0,.45,2.25,3.67,3.67,0,0,0,1.32,1.62,3.36,3.36,0,0,0,1.93.59h.05a2.21,2.21,0,0,0,1.34-.39,1.42,1.42,0,0,0,.61-1.18,1.63,1.63,0,0,0-.39-1.1A1.41,1.41,0,0,0,59,17.66Z"/>
          <path class="cls-2" d="M68.72,3.48a1.62,1.62,0,0,0-1.12-.4,5.42,5.42,0,0,0-2.76.7,4.87,4.87,0,0,0-1.9,2,6,6,0,0,0-.67,2.77h-.42a1.56,1.56,0,0,0-1.07.38A1.39,1.39,0,0,0,60.34,10a1.31,1.31,0,0,0,.44,1,1.52,1.52,0,0,0,1.07.39h.42V19.2a1.56,1.56,0,0,0,.46,1.15,1.52,1.52,0,0,0,1.08.44A1.62,1.62,0,0,0,65,20.35a1.55,1.55,0,0,0,.45-1.15V11.35h1.68A1.52,1.52,0,0,0,68.2,11a1.31,1.31,0,0,0,.44-1A1.39,1.39,0,0,0,68.2,8.9a1.56,1.56,0,0,0-1.07-.38H65.45V8.44A2.47,2.47,0,0,1,66,6.68,2,2,0,0,1,67.6,6a1.62,1.62,0,0,0,1.12-.4,1.41,1.41,0,0,0,.47-1.08A1.42,1.42,0,0,0,68.72,3.48Z"/>
          <path class="cls-2" d="M81.28,11.12A6,6,0,0,0,79,8.83,6.52,6.52,0,0,0,75.72,8a6.61,6.61,0,0,0-3.31.83,5.82,5.82,0,0,0-2.29,2.3,6.72,6.72,0,0,0-.81,3.32,6.7,6.7,0,0,0,.81,3.3,5.82,5.82,0,0,0,2.29,2.3,6.61,6.61,0,0,0,3.31.83A6.54,6.54,0,0,0,79,20.05a5.86,5.86,0,0,0,2.28-2.3,6.7,6.7,0,0,0,.81-3.3A6.76,6.76,0,0,0,81.28,11.12Zm-3.86,6.39a3.22,3.22,0,0,1-1.7.45A3.26,3.26,0,0,1,74,17.51a3.08,3.08,0,0,1-1.17-1.23,3.78,3.78,0,0,1-.44-1.83,3.85,3.85,0,0,1,.44-1.84A3,3,0,0,1,74,11.37a3.25,3.25,0,0,1,1.71-.44,3.22,3.22,0,0,1,1.7.44,3,3,0,0,1,1.16,1.24A3.93,3.93,0,0,1,79,14.45a3.86,3.86,0,0,1-.43,1.83,3.06,3.06,0,0,1-1.16,1.23Z"/>
        </g>
      </g>
    </g>
  </g>
</svg>
