<svg id="Capa_1" data-name="Capa 1" xmlns="http://www.w3.org/2000/svg" width="13.82" height="13.82" viewBox="0 0 13.82 13.82">
  <defs>
    <style>
      .cls-1 {
        fill: #fff;
      }
    </style>
  </defs>
  <title>Activos_Final_app_trip</title>
  <g>
    <path class="cls-1" d="M6.94,0a6.91,6.91,0,1,0,6.91,6.91A6.92,6.92,0,0,0,6.94,0Zm0,13.2a6.29,6.29,0,1,1,6.29-6.29A6.3,6.3,0,0,1,6.94,13.2Z"/>
    <path class="cls-1" d="M5.66,5.8A1.1,1.1,0,1,0,4.57,6.9,1.1,1.1,0,0,0,5.66,5.8Z"/>
    <path class="cls-1" d="M9.32,4.7a1.1,1.1,0,1,0,1.1,1.1A1.1,1.1,0,0,0,9.32,4.7Z"/>
    <path class="cls-1" d="M6.94,8.11C5.4,8.11,4.7,9,4.7,9.88a.36.36,0,0,0,.72,0c0-.64.6-1.05,1.52-1.05s1.53.41,1.53,1.05a.36.36,0,1,0,.71,0C9.18,9,8.49,8.11,6.94,8.11Z"/>
  </g>
</svg>
