<svg xmlns="http://www.w3.org/2000/svg" width="11.77" height="12.53" viewBox="0 0 11.77 12.53">
  <defs>
    <style>
      .cls-1 {
        fill: #2d3d4c;
        fill-rule: evenodd;
      }
    </style>
  </defs>
  <title>Recurso 15</title>
  <g id="Capa_2" data-name="Capa 2">
    <g id="Capa_1-2" data-name="Capa 1">
      <g>
        <path class="cls-1" d="M11.77,2.84H10.55V2.49a.51.51,0,0,0-.5-.5H9.36V.5a.5.5,0,0,0-.5-.5H1.15A1.21,1.21,0,0,0,0,1.25V11.33a1.23,1.23,0,0,0,1.25,1.2h8.8a.5.5,0,0,0,.5-.5V4.76h1.2l-.57-.94ZM1.25,2A1.84,1.84,0,0,0,1,2V1.25c0-.14.08-.25.15-.25H8.36V2H1.25Zm8.3,9.54H2.38V3H9.55Z"/>
        <path class="cls-1" d="M4.53,8.48H7.66a1.2,1.2,0,0,0,1.2-1.2V5.88a1.2,1.2,0,0,0-1.2-1.2H4.53a1.21,1.21,0,0,0-1.21,1.2v1.4A1.21,1.21,0,0,0,4.53,8.48ZM7.66,8H4.53A.69.69,0,0,1,4,7.65L5.2,6.39h.11l1,1a.24.24,0,0,0,.35,0l.59-.64,1,1A.68.68,0,0,1,7.66,8ZM3.82,5.88a.71.71,0,0,1,.71-.7H7.66a.71.71,0,0,1,.7.7V7.15l-.8-.79a.46.46,0,0,0-.65,0l-.46.46L5.66,6a.57.57,0,0,0-.41-.17.56.56,0,0,0-.4.17l-1,1Z"/>
        <path class="cls-1" d="M6.52,6a.32.32,0,0,0,.32-.33.32.32,0,0,0-.32-.32.32.32,0,0,0-.33.32A.33.33,0,0,0,6.52,6Z"/>
      </g>
    </g>
  </g>
</svg>
