<svg id="Capa_1" data-name="Capa 1" xmlns="http://www.w3.org/2000/svg" width="20.581" height="16.176" viewBox="0 0 20.581 16.176">
  <defs>
    <style>
      .cls-1 {
        fill: #2d3d4c;
      }
    </style>
  </defs>
  <title>Camara</title>
  <g>
    <path class="cls-1" d="M10.29,3.993a4.751,4.751,0,1,0,4.751,4.751A4.756,4.756,0,0,0,10.29,3.993Zm0,8.5a3.751,3.751,0,1,1,3.751-3.75A3.755,3.755,0,0,1,10.29,12.494Z"/>
    <path class="cls-1" d="M16.8,3.8A1.567,1.567,0,0,0,15.254,5.43,1.545,1.545,0,0,0,16.8,6.974h.09A1.59,1.59,0,1,0,16.8,3.8Zm.09,2.178H16.8a.591.591,0,1,1,.634-.544A.545.545,0,0,1,16.888,5.974Z"/>
    <path class="cls-1" d="M19.063,2.348H15.686C15.316,1.287,14.4,0,13.218,0H7.362C6.182,0,5.265,1.287,4.9,2.348H1.518A1.519,1.519,0,0,0,0,3.865V14.659a1.519,1.519,0,0,0,1.518,1.517H19.063a1.519,1.519,0,0,0,1.518-1.517V3.865A1.519,1.519,0,0,0,19.063,2.348Zm.518,12.311a.518.518,0,0,1-.518.517H1.518A.518.518,0,0,1,1,14.659V3.865a.518.518,0,0,1,.518-.517H5.669l.089-.388c.183-.8.9-1.96,1.6-1.96h5.856c.705,0,1.422,1.161,1.605,1.96l.089.388h4.151a.518.518,0,0,1,.518.517Z"/>
  </g>
</svg>
