<svg id="Capa_1" data-name="Capa 1" xmlns="http://www.w3.org/2000/svg" width="11.956" height="11.46" viewBox="0 0 11.956 11.46">
  <defs>
    <style>
      .cls-1 {
        fill: #374355;
        fill-rule: evenodd;
      }
    </style>
  </defs>
  <title>Comentarios</title>
  <path class="cls-1" d="M5.978,0C2.676,0,0,2.236,0,5A4.792,4.792,0,0,0,2.476,9.037,3.745,3.745,0,0,1,1.321,11.46,5.95,5.95,0,0,0,4.805,9.893a7.16,7.16,0,0,0,1.173.1c3.3,0,5.978-2.237,5.978-4.995S9.279,0,5.978,0ZM3.036,2.965H8.92a.375.375,0,0,1,0,.75H3.036a.375.375,0,1,1,0-.75Zm4.99,4.023h-4.1a.375.375,0,1,1,0-.75h4.1a.375.375,0,0,1,0,.75ZM9.122,5.3H2.834a.375.375,0,0,1,0-.75H9.122a.375.375,0,0,1,0,.75Z"/>
</svg>
