<svg id="Capa_1" data-name="Capa 1" xmlns="http://www.w3.org/2000/svg" width="11.411" height="12.945" viewBox="0 0 11.411 12.945">
  <defs>
    <style>
      .cls-1 {
        fill: #2b3c4b;
      }
    </style>
  </defs>
  <title>Compartir-mi-viaje</title>
  <path class="cls-1" d="M8.374,6.871a3.018,3.018,0,0,0-2.33,1.111l-2.8-1.3a1.623,1.623,0,0,0,.1-.508A1.631,1.631,0,0,0,3.1,5.35L5.619,3.729a2.108,2.108,0,0,0,1.387.542,2.134,2.134,0,1,0-1.967-1.3L2.39,4.673A1.636,1.636,0,0,0,1.675,4.5a1.675,1.675,0,0,0,0,3.35,1.639,1.639,0,0,0,1.011-.374L5.551,8.807a3.006,3.006,0,0,0-.213,1.1A3.037,3.037,0,1,0,8.374,6.871Z"/>
</svg>
