<svg id="Capa_1" data-name="Capa 1" xmlns="http://www.w3.org/2000/svg" width="12.842" height="12.845" viewBox="0 0 12.842 12.845">
  <defs>
    <style>
      .cls-1 {
        fill: #2b3c4b;
        fill-rule: evenodd;
      }
    </style>
  </defs>
  <title>editar-mi-viaje</title>
  <path class="cls-1" d="M12.017,12.845.8,12.82a.8.8,0,0,1-.8-.8L.025.8a.8.8,0,0,1,.8-.8l8.8.02-1.605,1.6L1.626,1.6,1.6,11.219l9.616.022.014-6.4,1.606-1.6-.02,8.8a.8.8,0,0,1-.8.8ZM12.2,2.378,10.489.66l.286-.286a1.212,1.212,0,0,1,1.71,1.719l-.286.285ZM3.746,9.087,4.323,6.8l.286-.285,1.71,1.718-.287.285-2.286.567Zm7.881-6.139L6.891,7.665,5.181,5.947,9.916,1.23l1.711,1.718Z"/>
</svg>
