<svg id="Capa_1" data-name="Capa 1" xmlns="http://www.w3.org/2000/svg" width="13.439" height="13.439" viewBox="0 0 13.439 13.439">
  <defs>
    <style>
      .cls-1 {
        fill: #fff;
      }
    </style>
  </defs>
  <title>eliminar-meta</title>
  <path class="cls-1" d="M11.471,1.968a6.72,6.72,0,1,0,0,9.5A6.72,6.72,0,0,0,11.471,1.968Zm-1.4,6.825a.9.9,0,1,1-1.273,1.273L6.719,7.992,4.645,10.066A.9.9,0,1,1,3.373,8.793L5.446,6.72,3.373,4.646A.9.9,0,0,1,4.645,3.373L6.719,5.447,8.793,3.373a.9.9,0,1,1,1.273,1.273L7.992,6.72Z"/>
</svg>
