<svg id="Capa_1" data-name="Capa 1" xmlns="http://www.w3.org/2000/svg" width="9.722" height="10.713" viewBox="0 0 9.722 10.713">
  <defs>
    <style>
      .cls-1 {
        fill: #2c3c4a;
      }
    </style>
  </defs>
  <title>Eliminar Comentario</title>
  <path class="cls-1" d="M9.275,1.4H6.626A1.429,1.429,0,0,0,5.2,0H4.6A1.429,1.429,0,0,0,3.175,1.4H.447a.447.447,0,0,0,0,.894h.584v7.977a.447.447,0,0,0,.447.447H8.314a.447.447,0,0,0,.447-.447V2.289h.514a.447.447,0,0,0,0-.894ZM4.6.894h.6a.537.537,0,0,1,.534.5H4.066A.537.537,0,0,1,4.6.894ZM7.867,9.819h-.52V3.255a.447.447,0,1,0-.894,0V9.819H5.308V3.255a.447.447,0,0,0-.894,0V9.819H3.324V3.255a.447.447,0,1,0-.894,0V9.819H1.925V2.431H7.867Z"/>
</svg>
