<svg id="Capa_1" data-name="Capa 1" xmlns="http://www.w3.org/2000/svg" width="14.293" height="14.293" viewBox="0 0 14.293 14.293">
  <defs>
    <style>
      .cls-1 {
        fill: #2c3c4a;
      }
    </style>
  </defs>
  <title>En-Progreso</title>
  <g>
    <path class="cls-1" d="M7.146,0a7.147,7.147,0,1,0,7.147,7.146A7.155,7.155,0,0,0,7.146,0Zm.5,13.268V11.854a.5.5,0,0,0-1,0v1.414A6.151,6.151,0,0,1,1.025,7.646H2.387a.5.5,0,0,0,0-1H1.025A6.15,6.15,0,0,1,6.646,1.025v1.5a.5.5,0,1,0,1,0V1.025a6.151,6.151,0,0,1,5.622,5.621H11.843a.5.5,0,0,0,0,1h1.425A6.151,6.151,0,0,1,7.646,13.268Z"/>
    <path class="cls-1" d="M11.215,3.25a.5.5,0,0,0-.707,0L7.115,6.643,5.156,4.685a.5.5,0,0,0-.707.707L6.762,7.7a.5.5,0,0,0,.707,0l3.746-3.747A.5.5,0,0,0,11.215,3.25Z"/>
  </g>
</svg>
