<svg id="Capa_1" data-name="Capa 1" xmlns="http://www.w3.org/2000/svg" xmlns:xlink="http://www.w3.org/1999/xlink" width="18.32" height="18.33" viewBox="0 0 18.32 18.33">
  <defs>
    <style>
      .cls-1 {
        fill: none;
      }

      .cls-2 {
        clip-path: url(#clip-path);
      }

      .cls-3 {
        fill: #fff;
      }

      .cls-4, .cls-5 {
        fill: #f14950;
      }

      .cls-5 {
        stroke: #fff;
        stroke-miterlimit: 10;
        stroke-width: 0.75px;
      }

      .cls-6 {
        clip-path: url(#clip-path-2);
      }

      .cls-7 {
        fill: #f2f23d;
      }

      .cls-8 {
        fill: #338ec9;
      }
    </style>
    <clipPath id="clip-path">
      <circle class="cls-1" cx="27.85" cy="9.16" r="9.16"/>
    </clipPath>
    <clipPath id="clip-path-2">
      <circle class="cls-1" cx="9.16" cy="9.16" r="9.16"/>
    </clipPath>
  </defs>
  <title>Aplicacion de viajes final</title>
  <g class="cls-2">
    <g>
      <polygon class="cls-3" points="38.06 0.99 36.02 -1.05 27.85 7.12 19.68 -1.05 17.64 0.99 25.81 9.16 17.64 17.33 19.68 19.37 27.85 11.2 36.02 19.37 38.06 17.33 29.89 9.16 38.06 0.99"/>
      <polygon class="cls-4" points="27.14 9.87 17.48 0.21 18.19 -0.49 27.14 8.46 39.64 -4.05 40.35 -3.34 27.14 9.87"/>
      <polygon class="cls-4" points="15.97 22.37 15.27 21.67 28.48 8.46 38.14 18.11 37.43 18.82 28.48 9.87 15.97 22.37"/>
    </g>
    <polygon class="cls-5" points="39.32 7.34 29.68 7.34 29.68 -2.3 26.03 -2.3 26.03 7.34 16.39 7.34 16.39 10.99 26.03 10.99 26.03 20.63 29.68 20.63 29.68 10.99 39.32 10.99 39.32 7.34"/>
  </g>
  <g class="cls-6">
    <circle class="cls-7" cx="9.16" cy="9.16" r="9.16"/>
    <rect class="cls-8" x="-1.16" y="8.42" width="21.89" height="5.14"/>
    <rect class="cls-4" x="-1.16" y="13.48" width="21.89" height="5.25"/>
  </g>
</svg>
