<svg id="Capa_1" data-name="Capa 1" xmlns="http://www.w3.org/2000/svg" width="13.819" height="13.819" viewBox="0 0 13.819 13.819">
  <defs>
    <style>
      .cls-1 {
        fill: #23a807;
      }

      .cls-2 {
        opacity: 0.1;
      }

      .cls-3 {
        fill: #fff;
      }

      .cls-4 {
        fill: #fffdfd;
      }
    </style>
  </defs>
  <title>Estupendo</title>
  <g>
    <path class="cls-1" d="M6.91,13.819A6.91,6.91,0,1,1,13.819,6.91,6.917,6.917,0,0,1,6.91,13.819Z"/>
    <g class="cls-2">
      <path class="cls-3" d="M6.91,4.762C.343,4.762.819,10.268.819,6.91A6.091,6.091,0,1,1,13,6.91C13,10.268,13.476,4.762,6.91,4.762Z"/>
    </g>
    <g>
      <circle class="cls-4" cx="4.422" cy="5.75" r="1.149"/>
      <circle class="cls-4" cx="9.397" cy="5.75" r="1.149"/>
    </g>
    <path class="cls-4" d="M6.91,8.167h0a2.755,2.755,0,0,1,2.755,2.755V11a0,0,0,0,1,0,0H4.155a0,0,0,0,1,0,0v-.075A2.755,2.755,0,0,1,6.91,8.167Z" transform="translate(13.819 19.164) rotate(180)"/>
  </g>
</svg>
