<svg id="Capa_1" data-name="Capa 1" xmlns="http://www.w3.org/2000/svg" width="13.225" height="13.228" viewBox="0 0 13.225 13.228">
  <defs>
    <style>
      .cls-1 {
        fill: #2b3c4b;
        fill-rule: evenodd;
      }
    </style>
  </defs>
  <title>etiquetados-mi-viaje</title>
  <path class="cls-1" d="M11.022,13.016a27.54,27.54,0,0,1-4.408.212A27.591,27.591,0,0,1,2.2,13.016C.8,12.782,0,12.283,0,11.442c0-1.111,1.427-2.66,3.413-3.555a3.992,3.992,0,0,0,3.2,2.034A3.981,3.981,0,0,0,9.809,7.887c1.989.9,3.416,2.444,3.416,3.555,0,.841-.8,1.34-2.2,1.574Zm-4.408-4.2c-1.833,0-3.308-2.431-3.308-4.926C3.306,1.566,4.685,0,6.614,0S9.919,1.566,9.919,3.892c0,2.495-1.475,4.926-3.305,4.926Z"/>
</svg>
