<svg id="Capa_1" data-name="Capa 1" xmlns="http://www.w3.org/2000/svg" width="5.958" height="11.021" viewBox="0 0 5.958 11.021">
  <defs>
    <style>
      .cls-1 {
        fill: #fff;
      }
    </style>
  </defs>
  <title>facebook-icono</title>
  <path class="cls-1" d="M5.734,0,4.305,0A2.51,2.51,0,0,0,1.662,2.712V3.963H.224A.224.224,0,0,0,0,4.187V6a.225.225,0,0,0,.224.224H1.662V10.8a.225.225,0,0,0,.225.225H3.761a.225.225,0,0,0,.225-.225V6.224h1.68A.225.225,0,0,0,5.891,6V4.187a.225.225,0,0,0-.225-.224H3.986V2.9c0-.51.122-.768.785-.768h.963a.224.224,0,0,0,.224-.224V.227A.225.225,0,0,0,5.734,0Zm0,0"/>
</svg>
