<svg id="Capa_1" data-name="Capa 1" xmlns="http://www.w3.org/2000/svg" width="13.82" height="13.82" viewBox="0 0 13.82 13.82">
  <defs>
    <style>
      .cls-1 {
        fill: #fff;
      }
    </style>
  </defs>
  <title>Activos_Final_app_trip</title>
  <g>
    <path class="cls-1" d="M6.91,0a6.91,6.91,0,1,0,6.91,6.91A6.92,6.92,0,0,0,6.91,0Zm0,13.2A6.29,6.29,0,1,1,13.2,6.91,6.29,6.29,0,0,1,6.91,13.2Z"/>
    <path class="cls-1" d="M5.63,5.8a1.1,1.1,0,1,0-1.1,1.1A1.1,1.1,0,0,0,5.63,5.8Z"/>
    <path class="cls-1" d="M9.29,4.7a1.1,1.1,0,1,0,1.09,1.1A1.1,1.1,0,0,0,9.29,4.7Z"/>
    <path class="cls-1" d="M9.29,8.4a.36.36,0,0,0-.36.36c0,.63-.81,1.05-2,1.05s-2-.42-2-1.05a.36.36,0,1,0-.71,0c0,.88.84,1.76,2.73,1.76s2.73-.88,2.73-1.76A.36.36,0,0,0,9.29,8.4Z"/>
  </g>
</svg>
