<svg id="Capa_1" data-name="Capa 1" xmlns="http://www.w3.org/2000/svg" width="14.377" height="14.377" viewBox="0 0 14.377 14.377">
  <defs>
    <style>
      .cls-1 {
        fill: #fcfdff;
        fill-rule: evenodd;
      }
    </style>
  </defs>
  <title>Finalizar-meta</title>
  <path class="cls-1" d="M7.189,14.377a7.189,7.189,0,1,1,7.188-7.188,7.188,7.188,0,0,1-7.188,7.188Zm3.785-9.742a.968.968,0,0,0-1.332,0L6.291,7.817l-.958-.891A.972.972,0,0,0,4,6.926.879.879,0,0,0,4,8.205L5.624,9.734a.969.969,0,0,0,1.333,0l4.017-3.821a.878.878,0,0,0,0-1.278Z"/>
</svg>
