<svg xmlns="http://www.w3.org/2000/svg" width="10.08" height="10.28" viewBox="0 0 10.08 10.28">
  <defs>
    <style>
      .cls-1 {
        fill: #fff;
      }
    </style>
  </defs>
  <title>Recurso 19</title>
  <g id="Capa_2" data-name="Capa 2">
    <g id="Capa_1-2" data-name="Capa 1">
      <g>
        <path class="cls-1" d="M5.89,1.62C3.24,1.75,3.25.38,3.25.38a.38.38,0,1,0-.75,0v9h.75V5.79A4,4,0,0,0,7.06,4.64c1.76-1.76,3-1.61,3-1.61A5.83,5.83,0,0,0,5.89,1.62Z"/>
        <path class="cls-1" d="M3.37,8.5v.2c1.18.06,2.06.29,2.06.58s-1.14.5-2.55.5S.32,9.6.32,9.28s.88-.52,2.06-.58V8.5C1,8.57,0,8.94,0,9.38s1.29.9,2.88.9,2.87-.4,2.87-.9S4.72,8.57,3.37,8.5Z"/>
      </g>
    </g>
  </g>
</svg>
