<svg id="Capa_1" data-name="Capa 1" xmlns="http://www.w3.org/2000/svg" width="23.854" height="15.973" viewBox="0 0 23.854 15.973">
  <defs>
    <style>
      .cls-1 {
        fill: #2d3d4c;
      }
    </style>
  </defs>
  <title>Galeria</title>
  <g>
    <path class="cls-1" d="M22.166,0H1.688A1.69,1.69,0,0,0,0,1.688v12.6a1.689,1.689,0,0,0,1.688,1.687H22.166a1.689,1.689,0,0,0,1.688-1.687V1.688A1.69,1.69,0,0,0,22.166,0ZM1.688,1H22.166a.689.689,0,0,1,.688.688V11.705L18.487,7.339A1.5,1.5,0,0,0,17.42,6.9h0a1.5,1.5,0,0,0-1.069.443l-2.724,2.724L9.376,5.812a2.12,2.12,0,0,0-2.927,0L1,11.262V1.688A.689.689,0,0,1,1.688,1ZM22.166,14.973H1.688A.688.688,0,0,1,1,14.286v-1.61L7.156,6.519a1.1,1.1,0,0,1,1.513,0l4.957,4.958,3.431-3.431a.511.511,0,0,1,.723,0l5.074,5.073v1.167A.688.688,0,0,1,22.166,14.973Z"/>
    <path class="cls-1" d="M13.848,6.024A1.978,1.978,0,1,0,11.87,4.046,1.98,1.98,0,0,0,13.848,6.024Zm0-2.955a.978.978,0,1,1-.978.977A.978.978,0,0,1,13.848,3.069Z"/>
  </g>
</svg>
