<svg xmlns="http://www.w3.org/2000/svg" width="10.781" height="10.783" viewBox="0 0 10.781 10.783">
  <defs>
    <style>
      .cls-1 {
        fill: #fff;
      }
    </style>
  </defs>
  <title>Recurso 9</title>
  <g id="Capa_2" data-name="Capa 2">
    <g id="Capa_1-2" data-name="Capa 1">
      <path class="cls-1" d="M5.913,6.5H8.545a3.347,3.347,0,1,1-.908-3.59.362.362,0,0,0,.493,0L9.1,2a.362.362,0,0,0,0-.526A5.373,5.373,0,0,0,5.5,0,5.392,5.392,0,1,0,10.774,5.7c0-.036.007-1.238.007-1.238H5.913a.362.362,0,0,0-.362.362V6.142a.362.362,0,0,0,.362.362Z"/>
    </g>
  </g>
</svg>
