<svg xmlns="http://www.w3.org/2000/svg" width="12.66" height="12.66" viewBox="0 0 12.66 12.66">
  <defs>
    <style>
      .cls-1 {
        fill: #2d3d4c;
        fill-rule: evenodd;
      }
    </style>
  </defs>
  <title>Recurso 14</title>
  <g id="Capa_2" data-name="Capa 2">
    <g id="Capa_1-2" data-name="Capa 1">
      <path class="cls-1" d="M12.51,11.36,9.11,8a.53.53,0,0,0-.56-.12L8,7.25A4.46,4.46,0,1,0,4.47,9,4.44,4.44,0,0,0,7.25,8l.59.59A.53.53,0,0,0,8,9.11l3.4,3.4a.54.54,0,0,0,.75,0l.4-.4A.54.54,0,0,0,12.51,11.36ZM1,4.47A3.48,3.48,0,1,1,4.47,8,3.48,3.48,0,0,1,1,4.47Z"/>
    </g>
  </g>
</svg>
