<svg id="Capa_1" data-name="Capa 1" xmlns="http://www.w3.org/2000/svg" width="15.757" height="16.477" viewBox="0 0 15.757 16.477">
  <defs>
    <style>
      .cls-1 {
        fill: #374355;
      }
    </style>
  </defs>
  <title>Menu-Notificaciones</title>
  <g>
    <path class="cls-1" d="M7.828,16.477A1.346,1.346,0,0,0,9.18,15.209h-2.7A1.376,1.376,0,0,0,7.828,16.477Z"/>
    <path class="cls-1" d="M14.933,12.654a4.9,4.9,0,0,1-2.475-4.445L12.414,5.3A4.192,4.192,0,0,0,9.187,1.7V1.266a1.318,1.318,0,1,0-2.635,0V1.7a4.17,4.17,0,0,0-3.23,3.644L3.281,8.216a4.957,4.957,0,0,1-2.539,4.5A1.1,1.1,0,0,0,.01,13.735a1.129,1.129,0,0,0,1.114,1.114H14.616a1.137,1.137,0,0,0,1.109-1.175A1.177,1.177,0,0,0,14.933,12.654Zm-.317,1.2H1.124a.134.134,0,0,1-.114-.114c0-.06.1-.093.109-.1l.1-.048a5.962,5.962,0,0,0,3.06-5.367L4.32,5.4A3.162,3.162,0,0,1,7.111,2.62l.441-.051v-1.3A.322.322,0,0,1,7.87.948a.318.318,0,0,1,.317.318V2.577l.451.045a3.154,3.154,0,0,1,2.779,2.739l.041,2.855a5.839,5.839,0,0,0,3.02,5.333l.169.063a.234.234,0,0,1,.082.123A.133.133,0,0,1,14.616,13.849Z"/>
  </g>
</svg>
