<svg id="Capa_1" data-name="Capa 1" xmlns="http://www.w3.org/2000/svg" width="14.333" height="17.663" viewBox="0 0 14.333 17.663">
  <defs>
    <style>
      .cls-1 {
        fill: #374355;
      }
    </style>
  </defs>
  <title>Menu-otros-viajes</title>
  <path class="cls-1" d="M12.519,11.036a.616.616,0,0,0,.419-.53V7.432c0-.345-.373-.625-.833-.625h-.573a4.762,4.762,0,0,0,.447-1.995,4.813,4.813,0,0,0-9.625,0,4.762,4.762,0,0,0,.447,2H2.195c-.459,0-.832.28-.832.625v3.023a.637.637,0,0,0,.472.558A7.131,7.131,0,0,0,0,15.786V16.7a.5.5,0,0,0,1,0v-.917a6.149,6.149,0,0,1,2.12-4.642,21.972,21.972,0,0,1,.21,5.8.5.5,0,0,0,.982.19A11.525,11.525,0,0,0,4.42,15H9.747a18.94,18.94,0,0,0-.038,2.2.5.5,0,0,0,.5.464l.035,0a.5.5,0,0,0,.464-.533,35.376,35.376,0,0,1,.436-6.048,6.156,6.156,0,0,1,2.19,4.706V16.7a.5.5,0,0,0,1,0v-.917A7.133,7.133,0,0,0,12.519,11.036ZM7.167,8.619l-.033,0A3.778,3.778,0,0,1,3.605,3.488a11.11,11.11,0,0,0,7.122,0,3.776,3.776,0,0,1,.252,1.327A3.815,3.815,0,0,1,7.2,8.621ZM4.386,14c-.011-.216-.025-.442-.042-.683H9.879c-.023.241-.043.467-.061.683Zm5.6-1.683H4.257c-.055-.556-.126-1.166-.217-1.833a6.12,6.12,0,0,1,3.094-.859l.033,0c.01,0,.021,0,.032,0a6.114,6.114,0,0,1,3.023.816C10.127,11.119,10.049,11.743,9.985,12.313Z"/>
</svg>
