<svg id="Capa_1" data-name="Capa 1" xmlns="http://www.w3.org/2000/svg" width="16.413" height="16.413" viewBox="0 0 16.413 16.413">
  <defs>
    <style>
      .cls-1 {
        fill: #374355;
      }
    </style>
  </defs>
  <title>Menu-ajustes</title>
  <g>
    <path class="cls-1" d="M15.573,6.483l-1.152-.195a6.583,6.583,0,0,0-.463-1.118l.679-.949a1.013,1.013,0,0,0-.11-1.307L13.505,1.893a1.008,1.008,0,0,0-.717-.3.994.994,0,0,0-.586.189l-.953.679a6.4,6.4,0,0,0-1.159-.477L9.9.847A1.013,1.013,0,0,0,8.9,0H7.454a1.013,1.013,0,0,0-1,.847l-.2,1.166a6.321,6.321,0,0,0-1.114.469L4.2,1.8a1.012,1.012,0,0,0-.59-.188,1,1,0,0,0-.717.3L1.865,2.935a1.014,1.014,0,0,0-.11,1.306l.686.964a6.411,6.411,0,0,0-.456,1.121L.847,6.518a1.013,1.013,0,0,0-.847,1V8.962a1.013,1.013,0,0,0,.847,1l1.166.2a6.362,6.362,0,0,0,.469,1.115l-.675.939a1.009,1.009,0,0,0,.11,1.306l1.021,1.022a1.01,1.01,0,0,0,1.3.11l.964-.686a6.475,6.475,0,0,0,1.083.446l.192,1.152a1.013,1.013,0,0,0,1,.847H8.928a1.013,1.013,0,0,0,1-.847l.2-1.152a6.539,6.539,0,0,0,1.117-.463l.95.679a1.014,1.014,0,0,0,1.306-.11L14.52,13.5a1.014,1.014,0,0,0,.11-1.306l-.679-.953a6.462,6.462,0,0,0,.463-1.118l1.152-.192a1.013,1.013,0,0,0,.847-1V7.485A1,1,0,0,0,15.573,6.483ZM15.5,8.928h0a.089.089,0,0,1-.076.089l-1.44.24a.461.461,0,0,0-.37.34,5.486,5.486,0,0,1-.6,1.436.463.463,0,0,0,.02.5l.847,1.193a.1.1,0,0,1-.01.117l-1.022,1.022a.086.086,0,0,1-.065.027.087.087,0,0,1-.052-.017l-1.189-.847a.467.467,0,0,0-.505-.021,5.455,5.455,0,0,1-1.436.6.457.457,0,0,0-.34.37l-.243,1.44a.089.089,0,0,1-.089.076H7.485a.09.09,0,0,1-.09-.076l-.239-1.44a.462.462,0,0,0-.34-.37,5.711,5.711,0,0,1-1.406-.576.476.476,0,0,0-.233-.062.454.454,0,0,0-.267.086l-1.2.854a.1.1,0,0,1-.052.017.094.094,0,0,1-.065-.028L2.571,12.878a.1.1,0,0,1-.01-.117l.844-1.183a.468.468,0,0,0,.02-.507,5.444,5.444,0,0,1-.6-1.433.47.47,0,0,0-.371-.34L1,9.051a.089.089,0,0,1-.075-.089V7.519A.089.089,0,0,1,1,7.43l1.43-.24a.465.465,0,0,0,.374-.343,5.451,5.451,0,0,1,.586-1.44.458.458,0,0,0-.024-.5l-.854-1.2a.094.094,0,0,1,.01-.116L3.545,2.568a.086.086,0,0,1,.065-.027.081.081,0,0,1,.052.017L4.845,3.4a.47.47,0,0,0,.507.021,5.446,5.446,0,0,1,1.433-.6.47.47,0,0,0,.34-.37L7.371,1a.09.09,0,0,1,.09-.076H8.9A.089.089,0,0,1,8.993,1l.24,1.429a.464.464,0,0,0,.343.374,5.557,5.557,0,0,1,1.471.6.465.465,0,0,0,.5-.021l1.183-.85a.094.094,0,0,1,.051-.017.09.09,0,0,1,.065.027l1.022,1.022a.092.092,0,0,1,.01.116l-.846,1.19a.461.461,0,0,0-.021.5,5.493,5.493,0,0,1,.6,1.437.456.456,0,0,0,.371.339l1.44.243a.09.09,0,0,1,.075.09Z"/>
    <path class="cls-1" d="M8.208,4.663A3.542,3.542,0,1,0,11.75,8.205,3.544,3.544,0,0,0,8.208,4.663Zm0,6.158a2.616,2.616,0,1,1,2.616-2.616A2.618,2.618,0,0,1,8.208,10.821Z"/>
  </g>
</svg>
