<svg id="Capa_1" data-name="Capa 1" xmlns="http://www.w3.org/2000/svg" width="7.077" height="12.583" viewBox="0 0 7.077 12.583">
  <defs>
    <style>
      .cls-1 {
        fill: #374355;
      }
    </style>
  </defs>
  <title>Metas</title>
  <path class="cls-1" d="M5.507,6.313V2.242c.99-.337,1.57-.879,1.57-1.263,0-1.3-7.077-1.3-7.077,0,0,.423.58.953,1.575,1.275V6.313C.58,6.566,0,7.031,0,7.672c0,.6,1.517.925,3.145.968v2.369c0,.434.177,1.574.4,1.574s.391-1.14.391-1.574V8.64C5.56,8.6,7.077,8.275,7.077,7.672c0-.641-.58-1.106-1.57-1.359Zm0,0"/>
</svg>
