<svg id="Capa_1" data-name="Capa 1" xmlns="http://www.w3.org/2000/svg" width="22.914" height="27.417" viewBox="0 0 22.914 27.417">
  <defs>
    <style>
      .cls-1 {
        fill: #2d3d4c;
      }
    </style>
  </defs>
  <title>Notificaciones-viajes</title>
  <g>
    <path class="cls-1" d="M22.62,17.39c-.008-5.024-3.354-12.157-7.894-14.561a3.3,3.3,0,0,0-6.537.018C3.663,5.269.328,12.4.329,17.371L0,24.34A2.961,2.961,0,0,0,2.96,27.417H19.955a2.961,2.961,0,0,0,2.958-3.07ZM9.222,4.007a.787.787,0,0,0,.433-.7,1.8,1.8,0,1,1,3.6.01.752.752,0,0,0,.437.681c2.24,1.031,4.2,3.484,5.552,6.247v.123c0,.862-1,1.59-2.175,1.59H12.63a1.174,1.174,0,0,0-2.345,0H5.841c-1.178,0-2.174-.728-2.174-1.59v-.052C5.009,7.531,6.977,5.053,9.222,4.007Zm-4.1,17.4a8.014,8.014,0,0,0,6.461,3.076c.062,0,.124,0,.186,0a7.5,7.5,0,0,0,6.1-3.044,7.719,7.719,0,0,1,1.386,4.416v.064H3.71v-.064A7.719,7.719,0,0,1,5.118,21.407Zm1.016-1.178a7.732,7.732,0,0,1,10.71.019,5.962,5.962,0,0,1-5.11,2.734A6.49,6.49,0,0,1,6.134,20.229Zm14.871,5.242a1.55,1.55,0,0,1-.266.214,9.262,9.262,0,0,0-18.521.022,1.422,1.422,0,0,1-.31-.238A1.444,1.444,0,0,1,1.5,24.4l.327-7a15.75,15.75,0,0,1,1.051-5.232,3.909,3.909,0,0,0,2.962,1.279H10.27v.875a1.188,1.188,0,1,0,2.375,0v-.875h4.428a3.91,3.91,0,0,0,2.988-1.3,15.793,15.793,0,0,1,1.059,5.257v.032l.294,6.966A1.447,1.447,0,0,1,21.005,25.471Z"/>
    <circle class="cls-1" cx="11.393" cy="6.75" r="1.406"/>
  </g>
</svg>
