<svg id="Capa_1" data-name="Capa 1" xmlns="http://www.w3.org/2000/svg" width="12.979" height="2.882" viewBox="0 0 12.979 2.882">
  <defs>
    <style>
      .cls-1 {
        fill: #2d3d4c;
      }
    </style>
  </defs>
  <title>Opciones</title>
  <g>
    <path class="cls-1" d="M2.771,1.418a1.656,1.656,0,0,1-.3,1.166,1.542,1.542,0,0,1-1.087.3A1.535,1.535,0,0,1,.3,2.589,1.566,1.566,0,0,1,0,1.473,1.67,1.67,0,0,1,.3.3,1.553,1.553,0,0,1,1.4,0,1.529,1.529,0,0,1,2.473.293,1.6,1.6,0,0,1,2.771,1.418Z"/>
    <path class="cls-1" d="M7.875,1.418a1.656,1.656,0,0,1-.3,1.166,1.542,1.542,0,0,1-1.087.3A1.535,1.535,0,0,1,5.4,2.589a1.566,1.566,0,0,1-.3-1.116A1.67,1.67,0,0,1,5.407.3,1.553,1.553,0,0,1,6.5,0,1.529,1.529,0,0,1,7.577.293,1.6,1.6,0,0,1,7.875,1.418Z"/>
    <path class="cls-1" d="M12.979,1.418a1.656,1.656,0,0,1-.3,1.166,1.542,1.542,0,0,1-1.087.3,1.537,1.537,0,0,1-1.082-.293,1.566,1.566,0,0,1-.3-1.116A1.67,1.67,0,0,1,10.511.3a1.554,1.554,0,0,1,1.1-.3,1.528,1.528,0,0,1,1.073.293A1.591,1.591,0,0,1,12.979,1.418Z"/>
  </g>
</svg>
