<svg id="Capa_1" data-name="Capa 1" xmlns="http://www.w3.org/2000/svg" width="14.231" height="13.881" viewBox="0 0 14.231 13.881">
  <defs>
    <style>
      .cls-1 {
        fill: #2d3d4c;
      }
    </style>
  </defs>
  <title>Público</title>
  <g>
    <g>
      <g>
        <path class="cls-1" d="M11.489,4.284A2.057,2.057,0,1,1,9.433,6.341a2.057,2.057,0,0,1,2.056-2.057Z"/>
        <path class="cls-1" d="M12.105,8.4H10.874a2.127,2.127,0,0,0-2.127,2.127h0v2.708a6.113,6.113,0,0,0,5.484,0V10.524A2.126,2.126,0,0,0,12.105,8.4Z"/>
      </g>
      <g>
        <path class="cls-1" d="M2.742,4.284A2.057,2.057,0,1,1,.686,6.341,2.057,2.057,0,0,1,2.742,4.284Z"/>
        <path class="cls-1" d="M3.358,8.4H2.126A2.126,2.126,0,0,0,0,10.524H0v2.708a6.113,6.113,0,0,0,5.484,0V10.524A2.126,2.126,0,0,0,3.358,8.4Z"/>
      </g>
    </g>
    <g>
      <circle class="cls-1" cx="7.116" cy="2.056" r="2.057"/>
      <path class="cls-1" d="M8.733,6.341a2.051,2.051,0,0,1,.622-1.473,2.118,2.118,0,0,0-1.624-.755H6.5a2.12,2.12,0,0,0-1.624.755,2.056,2.056,0,0,1-.5,3.306v.247A2.127,2.127,0,0,1,5.907,9.475a6.108,6.108,0,0,0,2.417,0A2.123,2.123,0,0,1,9.858,8.421V8.174A2.055,2.055,0,0,1,8.733,6.341Z"/>
    </g>
  </g>
</svg>
