<svg id="Capa_1" data-name="Capa 1" xmlns="http://www.w3.org/2000/svg" width="7.865" height="10.863" viewBox="0 0 7.865 10.863">
  <defs>
    <style>
      .cls-1 {
        fill: #eff4fa;
      }
    </style>
  </defs>
  <title>Seguir-otro-viaje</title>
  <g>
    <g>
      <path class="cls-1" d="M1.155,8.412l1.915-.5s-.037-.724-.381-4.345C2.476,1.316-.456,2.365.061,5.654A8.862,8.862,0,0,0,1.155,8.412Z"/>
      <path class="cls-1" d="M1.333,8.916,3.2,8.4a4.246,4.246,0,0,1,.393,1.328c.263,1.174-1.416,1.4-1.763.831A5.44,5.44,0,0,1,1.333,8.916Z"/>
    </g>
    <g>
      <path class="cls-1" d="M6.71,6.044,4.8,5.54s.038-.725.381-4.345C5.39-1.052,8.322,0,7.8,3.286A8.875,8.875,0,0,1,6.71,6.044Z"/>
      <path class="cls-1" d="M6.533,6.547,4.668,6.035a4.272,4.272,0,0,0-.394,1.328c-.263,1.174,1.417,1.4,1.763.831A5.445,5.445,0,0,0,6.533,6.547Z"/>
    </g>
  </g>
</svg>
