<svg id="Capa_1" data-name="Capa 1" xmlns="http://www.w3.org/2000/svg" width="8.287" height="10.33" viewBox="0 0 8.287 10.33">
  <defs>
    <style>
      .cls-1 {
        fill: #eff4fa;
      }
    </style>
  </defs>
  <title>Siguiendo-otro-viaje</title>
  <g>
    <path class="cls-1" d="M5.255,5.152a2.7,2.7,0,1,0-2.223,0A4.137,4.137,0,0,0,0,9.125v.514a.416.416,0,0,0,.831,0V9.125a3.313,3.313,0,1,1,6.625,0v.514a.416.416,0,0,0,.831,0V9.125A4.137,4.137,0,0,0,5.255,5.152Z"/>
    <path class="cls-1" d="M4.132,7.577a.956.956,0,0,1,.875-.593,1.01,1.01,0,0,1,.954.989.983.983,0,0,1-.03.373,1.652,1.652,0,0,1-.5.839L4.132,10.341,2.859,9.185a1.65,1.65,0,0,1-.5-.839.974.974,0,0,1-.031-.373,1.011,1.011,0,0,1,.954-.989.924.924,0,0,1,.853.593Zm0,0"/>
  </g>
</svg>
