<svg id="Capa_1" data-name="Capa 1" xmlns="http://www.w3.org/2000/svg" width="10.394" height="10.396" viewBox="0 0 10.394 10.396">
  <defs>
    <style>
      .cls-1 {
        fill: #374355;
        fill-rule: evenodd;
      }
    </style>
  </defs>
  <title>VIdeo-imagen</title>
  <path class="cls-1" d="M9.745,10.4H.65A.651.651,0,0,1,0,9.746V.65A.651.651,0,0,1,.65,0H9.745a.65.65,0,0,1,.649.65v9.1a.65.65,0,0,1-.649.65ZM4.763,9.529H5.63V8.662H4.763v.867ZM7.236,5.4a.236.236,0,0,0,.125-.211.239.239,0,0,0-.125-.21L3.845,3.066a.252.252,0,0,0-.253,0,.233.233,0,0,0-.128.211V7.1a.238.238,0,0,0,.128.212.256.256,0,0,0,.253,0L7.236,5.4Zm-4.2,4.13H3.9V8.662H3.031v.867ZM2.165.866H1.3v.866h.865V.866Zm0,7.8H1.3v.867h.865V8.662ZM3.9.866H3.031v.866H3.9V.866Zm1.733,0H4.763v.866H5.63V.866Zm1.733,0H6.5v.866h.867V.866Zm0,7.8H6.5v.867h.867V8.662ZM9.1.866H8.229v.866H9.1V.866Zm0,7.8H8.229v.867H9.1V8.662Z"/>
</svg>
