<svg id="Capa_1" data-name="Capa 1" xmlns="http://www.w3.org/2000/svg" width="21.16" height="16.18" viewBox="0 0 21.16 16.18">
  <defs>
    <style>
      .cls-1 {
        fill: #2d3d4c;
      }
    </style>
  </defs>
  <title>Video</title>
  <g>
    <path class="cls-1" d="M19.44,0H1.71A1.72,1.72,0,0,0,0,1.71V14.47a1.72,1.72,0,0,0,1.71,1.71H19.44a1.72,1.72,0,0,0,1.71-1.71V1.71A1.72,1.72,0,0,0,19.44,0Zm.69,1.71v.83H17.76V1h1.68A.7.7,0,0,1,20.13,1.71Zm0,11H1V3.56H20.13v9.15Zm-13.56,1v1.44H4.19V13.72Zm1,0H10v1.44H7.58Zm3.39,0h2.38v1.44H11Zm3.39,0h2.38v1.44H14.36Zm0-11.18V1h2.38V2.54Zm-1,0H11V1h2.38ZM10,2.54H7.58V1H10Zm-3.39,0H4.19V1H6.57ZM1.71,1H3.18V2.54H1V1.71A.71.71,0,0,1,1.71,1ZM1,14.47v-.75H3.18v1.44H1.71A.7.7,0,0,1,1,14.47Zm18.43.69H17.76V13.72h2.37v.75A.69.69,0,0,1,19.44,15.16Z"/>
    <path class="cls-1" d="M9.22,5a.63.63,0,0,0-1,.48v5.18a.63.63,0,0,0,1.07.44l3.91-2.81a.62.62,0,0,0,0-.92Z"/>
  </g>
</svg>
