<svg id="Capa_1" data-name="Capa 1" xmlns="http://www.w3.org/2000/svg" width="9.998" height="14.634" viewBox="0 0 9.998 14.634">
  <defs>
    <style>
      .cls-1 {
        fill: #2d3d4c;
      }
    </style>
  </defs>
  <title>Vista-Flujo</title>
  <path class="cls-1" d="M9.236,5.308H5.449V4.083h1a.762.762,0,0,0,.762-.761V.762A.762.762,0,0,0,6.45,0H.762A.762.762,0,0,0,0,.762v2.56a.762.762,0,0,0,.762.761H4.494V5.308h-.93A.762.762,0,0,0,2.8,6.07V8.63a.762.762,0,0,0,.762.762h.93v1.159H.762A.762.762,0,0,0,0,11.313v2.56a.762.762,0,0,0,.762.761H6.45a.762.762,0,0,0,.762-.761v-2.56a.762.762,0,0,0-.762-.762h-1V9.392H9.236A.762.762,0,0,0,10,8.63V6.07A.762.762,0,0,0,9.236,5.308Z"/>
</svg>
