<svg id="Capa_1" data-name="Capa 1" xmlns="http://www.w3.org/2000/svg" width="15.017" height="14.506" viewBox="0 0 15.017 14.506">
  <defs>
    <style>
      .cls-1 {
        fill: #2d3d4c;
        fill-rule: evenodd;
      }
    </style>
  </defs>
  <title>Vista-Calendario</title>
  <path class="cls-1" d="M11.775.013c.112,0,.222.009.333.02a3.442,3.442,0,0,1,.75.171A3.3,3.3,0,0,1,14.1.989a3.13,3.13,0,0,1,.718,1.126,2.988,2.988,0,0,1,.164.685A3.107,3.107,0,0,1,15,3.12q.029,4.134,0,8.267a3.125,3.125,0,0,1-.021.32,3.009,3.009,0,0,1-.164.686,3.139,3.139,0,0,1-.718,1.126,3.284,3.284,0,0,1-1.242.784,3.332,3.332,0,0,1-.75.172c-.111.012-.221.018-.333.02q-4.293.026-8.587,0c-.112,0-.222-.008-.333-.02a3.323,3.323,0,0,1-.749-.172,3.28,3.28,0,0,1-1.131-.678,3.147,3.147,0,0,1-.83-1.232,3.06,3.06,0,0,1-.163-.686,3.127,3.127,0,0,1-.022-.32q-.028-4.133,0-8.267A3.108,3.108,0,0,1-.018,2.8a3.039,3.039,0,0,1,.163-.685A3.157,3.157,0,0,1,.975.882,3.28,3.28,0,0,1,2.106.2,3.433,3.433,0,0,1,2.855.033c.111-.011.221-.019.333-.02q4.293-.026,8.587,0ZM14.357,4.42H.607Q.591,7.9.614,11.379a2.536,2.536,0,0,0,.021.289,2.453,2.453,0,0,0,.126.515,2.555,2.555,0,0,0,.664.987,2.668,2.668,0,0,0,.906.543,2.717,2.717,0,0,0,.6.137c.089.009.178.013.267.015q4.286.027,8.571,0c.089,0,.178-.006.266-.015a2.713,2.713,0,0,0,.6-.137,2.645,2.645,0,0,0,1-.629,2.514,2.514,0,0,0,.575-.9,2.408,2.408,0,0,0,.13-.547,2.189,2.189,0,0,0,.017-.257q.024-3.478.008-6.959ZM2.249,11.031a.631.631,0,1,1,0,1.261.631.631,0,1,1,0-1.261Zm7.85,0a.631.631,0,1,1-.655.63.644.644,0,0,1,.655-.63Zm-5.234,0a.631.631,0,1,1-.653.63.642.642,0,0,1,.653-.63Zm7.849,0a.631.631,0,1,1-.654.63.643.643,0,0,1,.654-.63Zm-5.232,0a.631.631,0,1,1-.654.63.642.642,0,0,1,.654-.63ZM10.1,7.884A1.26,1.26,0,1,1,8.79,9.142,1.283,1.283,0,0,1,10.1,7.884Zm-5.234.629a.63.63,0,1,1-.653.629.642.642,0,0,1,.653-.629Zm7.849,0a.63.63,0,1,1-.654.629.642.642,0,0,1,.654-.629Zm-10.465,0a.63.63,0,1,1,0,1.26.63.63,0,1,1,0-1.26Zm5.233,0a.63.63,0,1,1-.654.629.641.641,0,0,1,.654-.629ZM4.865,5.994a.63.63,0,1,1-.653.63.642.642,0,0,1,.653-.63Zm7.849,0a.63.63,0,1,1-.654.63.643.643,0,0,1,.654-.63Zm-2.615,0a.63.63,0,1,1-.655.63.643.643,0,0,1,.655-.63Zm-7.85,0a.63.63,0,1,1,0,1.26.63.63,0,1,1,0-1.26Zm5.233,0a.63.63,0,1,1-.654.63.642.642,0,0,1,.654-.63Z"/>
</svg>
