<svg xmlns="http://www.w3.org/2000/svg" width="15.151" height="11.98" viewBox="0 0 15.151 11.98">
  <defs>
    <style>
      .cls-1 {
        fill: #2d3d4c;
      }
    </style>
  </defs>
  <title>Recurso 10</title>
  <g id="Capa_2" data-name="Capa 2">
    <g id="Capa_1-2" data-name="Capa 1">
      <path class="cls-1" d="M15.091,11.065l-2.383-5.1a2.072,2.072,0,0,0,.023-.224,2.165,2.165,0,0,0-.291-1.052,2.235,2.235,0,0,1,.122.212,4.986,4.986,0,0,0-9.971,0,2.341,2.341,0,0,1,.154-.265,2.137,2.137,0,0,0-.322,1.1c0,.075.015.146.022.22L.061,11.065a.637.637,0,0,0,.04.617.644.644,0,0,0,.242.222l2.37-5.1a2.183,2.183,0,0,0,.526.625c.186.285.583.433.824.676L3.624,10.36v0L3.3,11.98h.372a.3.3,0,0,0,.3-.243L4.21,10.5a10.673,10.673,0,0,1,6.731,0l.242,1.238a.3.3,0,0,0,.295.243h.373l-.323-1.618v0l-.448-2.3h0c.208-.243.642-.36.829-.623a2.192,2.192,0,0,0,.532-.629L14.809,11.9a.649.649,0,0,0,.241-.222A.64.64,0,0,0,15.091,11.065ZM12.306,4.456a2.25,2.25,0,0,0-.271-.3A2.25,2.25,0,0,1,12.306,4.456ZM3.313,3.972a4.337,4.337,0,0,1,.435-1.086,22.807,22.807,0,0,0,7.657,0,4.332,4.332,0,0,1,.435,1.082c.02.015.034.036.053.052a2.176,2.176,0,0,0-.511-.309,2.505,2.505,0,0,0-1.525-.306l-.528.065A1.066,1.066,0,0,0,8.4,4.687l0,.083-.181-.015-.413,0v0a.134.134,0,0,0-.135-.134H7.5a.135.135,0,0,0-.135.134h0l-.422,0-.159.018,0-.074A1.066,1.066,0,0,0,5.866,3.47l-.528-.065a2.519,2.519,0,0,0-1.477.278,2.231,2.231,0,0,0-1,.76A2.191,2.191,0,0,1,3.313,3.972ZM2.874,5.738A1.747,1.747,0,1,1,4.621,7.485,1.749,1.749,0,0,1,2.874,5.738Zm4.7,3.64A4.334,4.334,0,0,1,4.654,8.223l.056-.286V7.928A2.192,2.192,0,0,0,6.787,6.06h1.58a2.193,2.193,0,0,0,2.075,1.868v.009l.057.288A4.334,4.334,0,0,1,7.577,9.378Zm2.956-1.893A1.747,1.747,0,0,1,8.814,6.02V5.456a1.745,1.745,0,1,1,1.719,2.029Z"/>
    </g>
  </g>
</svg>
